PathFileType	4	(X/Y/Z)	D:\TRACE\v60_Jaco2_6-2-23\BothDRS_Motion3_8-platform.trc
DataRate	CameraRate	NumFrames	NumMarkers	Units	OrigDataRate	OrigDataStartFrame	OrigNumFrames
100.00	100.00	      54	5	mm	100.00	1	      7000
Frame#	Time	Left_Front			Right_Front			Left_Aft			Right_Aft			Post			
		X1	Y1	Z1	X2	Y2	Z2	X3	Y3	Z3	X4	Y4	Z4	X5	Y5	Z5	

1	0.000	-814.57660	128.37265	-611.84418	755.94366	125.71220	-588.84650	-745.14600	-73.85480	506.81995	668.84631	-92.29250	608.14838	-22.04728	1462.16016	-684.51056	
2	0.010	-814.58997	128.35541	-611.82703	755.91699	125.71496	-588.88226	-745.10248	-73.87447	506.81232	668.81433	-92.30310	608.11853	-22.11869	1462.13904	-684.49133	
3	0.020	-814.54468	128.35193	-611.83850	755.93396	125.71837	-588.87213	-745.13611	-73.83963	506.80579	668.84961	-92.30952	608.12274	-22.08510	1462.11218	-684.49298	
4	0.030	-814.53418	128.31448	-611.82147	755.92462	125.70509	-588.85956	-745.13733	-73.84689	506.84006	668.79730	-92.30402	608.12408	-22.06594	1462.10938	-684.51404	
5	0.040	-814.53412	128.36134	-611.82941	755.90320	125.71755	-588.85468	-745.12823	-73.83925	506.82172	668.82062	-92.30116	608.15253	-22.06655	1462.13049	-684.49597	
6	0.050	-814.57355	128.38054	-611.82336	755.92780	125.71878	-588.84845	-745.10675	-73.84561	506.82556	668.86536	-92.27689	608.18048	-22.04515	1462.15112	-684.52014	
7	0.060	-814.59363	128.36226	-611.83411	755.91687	125.68714	-588.89075	-745.09686	-73.86304	506.82678	668.81348	-92.30045	608.14557	-22.06061	1462.12061	-684.55182	
8	0.070	-814.55804	128.35161	-611.84045	755.86676	125.70247	-588.89130	-745.11871	-73.84935	506.81424	668.82947	-92.31378	608.15381	-22.07677	1462.13489	-684.51947	
9	0.080	-814.58612	128.38914	-611.81842	755.89386	125.72334	-588.86816	-745.11584	-73.86243	506.82816	668.83582	-92.30203	608.12036	-22.03591	1462.13745	-684.50342	
10	0.090	-814.56201	128.36401	-611.82861	755.89203	125.73124	-588.86951	-745.13995	-73.86401	506.81970	668.85919	-92.28928	608.15424	-22.11010	1462.12805	-684.48920	
11	0.100	-814.55890	128.35748	-611.83942	755.92084	125.72903	-588.85602	-745.12140	-73.83609	506.83057	668.83600	-92.29038	608.14984	-22.04728	1462.14270	-684.51855	
12	0.110	-814.62170	128.42245	-611.81140	755.89807	125.72519	-588.88086	-745.12872	-73.82762	506.83630	668.80170	-92.31810	608.13861	-22.04221	1462.15295	-684.52545	
13	0.120	-814.57275	128.37460	-611.82898	755.89984	125.71735	-588.89111	-745.12787	-73.82059	506.83746	668.80457	-92.29307	608.13391	-21.99727	1462.11743	-684.50037	
14	0.130	-814.58618	128.37387	-611.83173	755.89960	125.70226	-588.86865	-745.14490	-73.85190	506.81412	668.82294	-92.31850	608.14966	-22.05947	1462.14111	-684.52167	
15	0.140	-814.59827	128.38066	-611.84204	755.91895	125.68750	-588.86719	-745.12927	-73.87694	506.82590	668.82367	-92.29327	608.12982	-22.05773	1462.16785	-684.53027	
16	0.150	-814.55713	128.34045	-611.80286	755.93195	125.70126	-588.84351	-745.11786	-73.87061	506.82617	668.84064	-92.27949	608.14026	-22.07756	1462.15784	-684.51202	
17	0.160	-814.59143	128.40741	-611.81805	755.92035	125.73007	-588.84259	-745.09570	-73.86482	506.82764	668.86633	-92.27369	608.15674	-22.05348	1462.14319	-684.52661	
18	0.170	-814.58319	128.36835	-611.85730	755.93640	125.72215	-588.84741	-745.12341	-73.85148	506.82721	668.81921	-92.29652	608.13690	-22.03015	1462.15894	-684.48846	
19	0.180	-814.57178	128.35959	-611.84747	755.89301	125.71893	-588.88507	-745.14581	-73.84051	506.82327	668.83606	-92.29722	608.14648	-22.05653	1462.13330	-684.51202	
20	0.190	-814.59509	128.40088	-611.80420	755.89917	125.71652	-588.88177	-745.14868	-73.86547	506.81409	668.99805	-92.30983	608.04523	-22.05898	1462.11475	-684.52521	
21	0.200	-814.57593	128.37915	-611.78400	755.89301	125.72239	-588.90289	-745.12903	-73.85693	506.80441	668.81647	-92.31146	608.15137	-22.06252	1462.13928	-684.51306	
22	0.210	-814.55957	128.35262	-611.81506	755.91852	125.71249	-588.86438	-745.12402	-73.90125	506.83936	668.81696	-92.30023	608.16473	-22.03234	1462.11670	-684.49561	
23	0.220	-814.55505	128.34354	-611.78064	755.88135	125.73363	-588.89026	-745.13177	-73.85735	506.83685	668.81696	-92.29535	608.15472	-22.06926	1462.13135	-684.51190	
24	0.230	-814.57764	128.36128	-611.83569	755.89557	125.69757	-588.89752	-745.11115	-73.85500	506.83099	668.82806	-92.30794	608.14270	-22.11135	1462.10327	-684.52716	
25	0.240	-814.55591	128.35030	-611.80701	755.91797	125.73634	-588.87640	-745.09406	-73.87253	506.83105	668.79474	-92.31572	608.14563	-22.11111	1462.09155	-684.51587	
26	0.250	-814.54791	128.35777	-611.82684	755.90796	125.70640	-588.89209	-745.11115	-73.84255	506.80856	668.82172	-92.30894	608.13818	-22.04400	1462.10583	-684.52820	
27	0.260	-814.58734	128.36456	-611.82068	755.91357	125.73238	-588.87720	-745.15057	-73.83386	506.85580	668.79614	-92.30294	608.15747	-22.06242	1462.13904	-684.50378	
28	0.270	-814.59027	128.37619	-611.82172	755.92993	125.71687	-588.89850	-745.13104	-73.83477	506.81415	668.84540	-92.27521	608.15063	-22.03280	1462.13220	-684.51691	
29	0.280	-814.59625	128.40077	-611.82904	755.89850	125.70977	-588.88080	-745.12164	-73.87731	506.81149	668.87048	-92.30464	608.11798	-22.02649	1462.13660	-684.49170	
30	0.290	-814.60284	128.39305	-611.79492	755.92139	125.74252	-588.87128	-745.11511	-73.81834	506.83182	668.84137	-92.28345	608.14301	-22.07141	1462.15979	-684.54242	
31	0.300	-814.54889	128.37218	-611.81049	755.90668	125.73161	-588.86481	-745.08459	-73.84351	506.84015	668.83063	-92.25800	608.16919	-22.07036	1462.15979	-684.50781	
32	0.310	-814.51477	128.33350	-611.83813	755.91040	125.70747	-588.86835	-745.09424	-73.86118	506.84210	668.86212	-92.30246	608.11005	-22.03858	1462.14319	-684.50476	
33	0.320	-814.57916	128.36426	-611.82104	755.90985	125.70934	-588.85101	-745.17224	-73.81213	506.85480	668.82538	-92.29013	608.13190	-22.10223	1462.12561	-684.55273	
34	0.330	-814.57953	128.39462	-611.80981	755.85980	125.73443	-588.88129	-745.10681	-73.86259	506.81842	668.81268	-92.30135	608.14093	-22.00944	1462.11230	-684.47949	
35	0.340	-814.56909	128.36978	-611.83466	755.88654	125.72340	-588.85645	-745.14795	-73.87296	506.83527	668.78320	-92.30930	608.15796	-22.02947	1462.12817	-684.49097	
36	0.350	-814.58820	128.39769	-611.83014	755.89783	125.73772	-588.86841	-745.13123	-73.82238	506.79254	668.88116	-92.27660	608.16376	-22.01703	1462.15527	-684.49445	
37	0.360	-814.57874	128.39923	-611.83374	755.85583	125.71074	-588.89355	-745.15106	-73.83990	506.82413	668.84943	-92.27352	608.16064	-22.03117	1462.12952	-684.49902	
38	0.370	-814.56207	128.36145	-611.83282	755.90796	125.72066	-588.85693	-745.14551	-73.86112	506.85840	668.81427	-92.30568	608.13611	-22.06245	1462.10388	-684.51385	
39	0.380	-814.52124	128.32968	-611.82062	755.88300	125.71221	-588.88324	-745.14746	-73.85389	506.82736	668.79749	-92.32453	608.15448	-22.13861	1462.11609	-684.54437	
40	0.390	-814.56531	128.36433	-611.83105	755.89941	125.70259	-588.85742	-745.11908	-73.82619	506.84613	668.83411	-92.31318	608.11243	-22.06134	1462.14038	-684.49646	
41	0.400	-814.59760	128.38943	-611.79602	755.88739	125.72810	-588.86646	-745.12616	-73.82917	506.81497	668.82104	-92.29916	608.13916	-22.07516	1462.10718	-684.52496	
42	0.410	-814.55560	128.36499	-611.80725	755.91046	125.73711	-588.85632	-745.12018	-73.83465	506.82825	668.83722	-92.29622	608.14734	-22.01985	1462.13513	-684.49896	
43	0.420	-814.56281	128.38280	-611.82532	755.88220	125.73127	-588.88928	-745.10034	-73.82365	506.81830	668.82660	-92.29748	608.12860	-22.02790	1462.13745	-684.49561	
44	0.430	-814.59369	128.38208	-611.81061	755.89844	125.71753	-588.86755	-745.10687	-73.84330	506.82248	668.75610	-92.31487	608.13379	-22.03064	1462.13489	-684.49579	
45	0.440	-814.57678	128.38530	-611.81335	755.87140	125.70860	-588.86792	-745.13989	-73.84946	506.81473	668.82019	-92.29713	608.11023	-22.05337	1462.09583	-684.49115	
46	0.450	-814.56378	128.35995	-611.86774	755.88538	125.70782	-588.88214	-745.12634	-73.84518	506.83502	668.79376	-92.29232	608.15405	-22.06302	1462.10828	-684.50818	
47	0.460	-814.60370	128.39560	-611.81683	755.88458	125.74056	-588.87469	-745.11737	-73.83519	506.84070	668.78113	-92.31047	608.12860	-22.00912	1462.11731	-684.48895	
48	0.470	-814.57666	128.38266	-611.85358	755.93677	125.72953	-588.85205	-745.09320	-73.85421	506.84000	668.81598	-92.27599	608.16418	-22.00358	1462.19421	-684.49799	
49	0.480	-814.60419	128.41371	-611.81378	755.91632	125.71767	-588.85553	-745.12939	-73.85895	506.81235	668.82745	-92.31195	608.14758	-21.99414	1462.18433	-684.48773	
50	0.490	-814.58362	128.38678	-611.79028	755.88800	125.72271	-588.84760	-745.08057	-73.82014	506.83673	668.82983	-92.30237	608.14368	-22.09006	1462.12927	-684.53638	
51	0.500	-814.57556	128.36801	-611.87036	755.93646	125.69977	-588.83594	-745.08661	-73.86182	506.85284	668.82147	-92.29671	608.14716	-22.02469	1462.12378	-684.48163	
52	0.510	-814.56775	128.36613	-611.78949	755.89996	125.71478	-588.87103	-745.13251	-73.84081	506.83228	668.84680	-92.28641	608.19104	-22.03292	1462.13696	-684.52307	
53	0.520	-814.56665	128.36351	-611.79468	755.88226	125.70145	-588.88666	-745.10223	-73.85461	506.80737	668.83514	-92.47440	607.99841	-22.03487	1462.16675	-684.52356	
54	0.530	-814.54437	128.36388	-611.81732	755.90363	125.72579	-588.88403	-745.14014	-73.87048	506.83551	668.83942	-92.29414	608.14771	-22.07701	1462.17004	-684.49554	
